# xmcd CD database file
#
# Track frame offsets:
#	233
#	10831
#	22759
#	30191
#	44042
#	53574
#	66923
#	79739
#	86502
#	95635
#	103921
#	117459
#	124440
#	139041
#	147597
#	156447
#
# Disc length: 2241 seconds
#
# Revision: 0
# Processed by: cddbd v1.5.2PL0 Copyright (c) Steve Scherf et al.
# Submitted via: CDex 1.51
#
DISCID=dd08be10
DTITLE=Stones River Ranch Boys - Down Home Instrumentals Vol One
DYEAR=2001
DGENRE=Country Instrumental
TTITLE0=Fire On The Mountain
TTITLE1=Streets Of Laredo
TTITLE2=When You And I Were Young Maggie
TTITLE3=Life's Railway To Heaven
TTITLE4=Columbus Stockade Blues
TTITLE5=Barbara Allen
TTITLE6=Great Speckled Bird
TTITLE7=John Henry
TTITLE8=Spanish Two-Step
TTITLE9=Don't Let Your Deal Go Down
TTITLE10=I've Been Working On The Railroad
TTITLE11=Handsome Molly
TTITLE12=Under The Double Eagle
TTITLE13=Oh, Them Golden Slippers
TTITLE14=Maple Leaf Rag
TTITLE15=Bill Bailey
EXTD=YEAR: 2001
EXTT0=
EXTT1=
EXTT2=
EXTT3=
EXTT4=
EXTT5=
EXTT6=
EXTT7=
EXTT8=
EXTT9=
EXTT10=
EXTT11=
EXTT12=
EXTT13=
EXTT14=
EXTT15=
PLAYORDER=
